<?xml version="1.0" encoding="utf-8"?>
<!-- Generator: Adobe Illustrator 26.4.1, SVG Export Plug-In . SVG Version: 6.00 Build 0)  -->
<svg version="1.1" id="Layer_1" xmlns="http://www.w3.org/2000/svg" xmlns:xlink="http://www.w3.org/1999/xlink" x="0px" y="0px"
     viewBox="0 0 352.26 49.17" style="enable-background:new 0 0 352.26 49.17;" xml:space="preserve">
<style type="text/css">
	.st0{fill:#3AAA35;}
	.st1{fill:#FFFFFF;}
</style>
    <g>
	<polygon points="53.2,4.81 56.25,4.81 56.25,12.14 58.27,12.14 58.27,4.81 61.33,4.81 61.33,2.94 53.2,2.94 	"/>
        <g>
		<path d="M67.66,10.35c-1.58,0-2.79-1.21-2.79-2.81s1.21-2.81,2.79-2.81c1.56,0,2.77,1.22,2.77,2.81
			C70.43,9.13,69.22,10.35,67.66,10.35 M67.66,2.81c-2.8,0-4.87,2.02-4.87,4.73c0,2.72,2.07,4.73,4.87,4.73
			c2.79,0,4.85-2.02,4.85-4.73C72.51,4.82,70.44,2.81,67.66,2.81"/>
	</g>
        <polygon points="80.08,6.16 77.36,2.94 75.23,2.94 75.23,12.14 77.2,12.14 77.2,5.5 80.08,8.96 82.95,5.47 82.95,12.14
		84.91,12.14 84.91,2.94 82.8,2.94 	"/>
        <g>
		<path d="M91.47,4.57c1.02,0,1.91,0.5,2.41,1.33l1.29-1.25c-0.52-0.98-1.79-1.84-3.58-1.84c-1.94,0-3.62,1.18-3.62,2.9
			c0,1.64,1.29,2.24,2.59,2.57l1.31,0.34c0.64,0.17,1.11,0.4,1.11,0.94c0,0.62-0.65,0.94-1.5,0.94c-1.1,0-2.04-0.52-2.56-1.35
			l-1.31,1.19c0.52,0.99,1.84,1.92,3.87,1.92c1.94,0,3.61-1.13,3.61-2.88c0-1.59-1.17-2.29-2.61-2.68l-1.22-0.33
			c-0.6-0.17-1.18-0.37-1.18-0.92C90.08,4.94,90.65,4.57,91.47,4.57"/>
	</g>
        <polygon points="98.06,2.94 98.06,12.14 100.09,12.14 100.09,7.03 100.09,2.94 	"/>
        <polygon points="102.44,6.95 105.66,2.94 103.42,2.94 100.09,7.03 103.86,12.14 106.24,12.14 	"/>
        <g>
		<path d="M3.54,25.27H2.03v-2.43h1.51c0.82,0,1.35,0.49,1.35,1.19C4.89,24.76,4.36,25.27,3.54,25.27 M3.62,21.02H0v9.2h2.03v-3.18
			h1.59c1.88,0,3.36-1.06,3.36-3C6.98,22.09,5.53,21.02,3.62,21.02"/>
            <path d="M13.71,28.43c-1.58,0-2.79-1.21-2.79-2.81s1.21-2.81,2.79-2.81c1.56,0,2.77,1.22,2.77,2.81
			C16.48,27.21,15.28,28.43,13.71,28.43 M13.71,20.89c-2.8,0-4.87,2.02-4.87,4.73c0,2.72,2.07,4.73,4.87,4.73
			c2.79,0,4.85-2.02,4.85-4.73C18.57,22.9,16.5,20.89,13.71,20.89"/>
	</g>
        <polygon points="23.18,21.02 21.15,21.02 21.15,30.22 27.42,30.22 27.42,28.35 23.18,28.35 	"/>
        <polygon points="32.18,24.72 29.9,21.02 27.66,21.02 31.18,26.75 31.18,30.22 33.2,30.22 33.2,26.72 36.69,21.02 34.45,21.02 	"/>
        <polygon points="37.91,22.89 40.96,22.89 40.96,30.22 42.98,30.22 42.98,22.89 46.04,22.89 46.04,21.02 37.91,21.02 	"/>
        <polygon points="50.71,26.45 54.2,26.45 54.2,24.66 50.71,24.66 50.71,22.88 55.66,22.88 55.66,21.02 48.68,21.02 48.68,30.22
		55.71,30.22 55.71,28.36 50.71,28.36 	"/>
        <g>
		<path d="M62.51,22.81c1.23,0,1.96,0.66,2.44,1.31l1.45-1.25c-0.51-0.83-1.74-1.99-3.91-1.99c-2.56,0-4.87,1.9-4.87,4.73
			c0,2.84,2.14,4.73,4.88,4.73c2.08,0,3.39-1.15,3.9-1.99l-1.45-1.25c-0.48,0.65-1.21,1.31-2.44,1.31c-1.58,0-2.81-1.15-2.81-2.81
			C59.7,23.96,60.93,22.81,62.51,22.81"/>
	</g>
        <polygon points="75.25,24.63 71.02,24.63 71.02,21.02 68.99,21.02 68.99,30.22 71.02,30.22 71.02,26.48 75.25,26.48 75.25,30.22
		77.27,30.22 77.27,21.02 75.25,21.02 	"/>
        <polygon points="87.12,26.88 82.8,21.02 80.77,21.02 80.77,30.22 82.74,30.22 82.74,24.08 87.29,30.22 89.1,30.22 89.1,21.02
		87.12,21.02 	"/>
        <rect x="92.6" y="21.02" width="2.03" height="9.2"/>
        <g>
		<path d="M102.36,28.43c-1.58,0-2.81-1.15-2.81-2.81c0-1.66,1.23-2.81,2.81-2.81c1.23,0,1.96,0.66,2.44,1.31l1.45-1.25
			c-0.5-0.83-1.74-1.99-3.91-1.99c-2.56,0-4.87,1.9-4.87,4.73c0,2.84,2.14,4.73,4.88,4.73c2.08,0,3.4-1.15,3.9-1.99l-1.45-1.25
			C104.32,27.77,103.59,28.43,102.36,28.43"/>
            <path d="M20.42,44.35c0,1.45-0.98,2.17-2.12,2.17s-2.12-0.73-2.12-2.17V39.1h-2.02v5.34c0,2.53,1.67,3.99,4.15,3.99
			c2.45,0,4.14-1.46,4.14-3.99V39.1h-2.03V44.35z"/>
	</g>
        <polygon points="32.22,44.96 27.9,39.1 25.87,39.1 25.87,48.3 27.85,48.3 27.85,42.16 32.4,48.3 34.2,48.3 34.2,39.1 32.22,39.1
		"/>
        <rect x="37.7" y="39.1" width="2.03" height="9.2"/>
        <polygon points="46.73,45.58 44.3,39.1 42.14,39.1 45.68,48.3 47.75,48.3 51.32,39.1 49.16,39.1 	"/>
        <polygon points="55.76,44.53 59.25,44.53 59.25,42.74 55.76,42.74 55.76,40.95 60.71,40.95 60.71,39.1 53.73,39.1 53.73,48.3
		60.76,48.3 60.76,46.44 55.76,46.44 	"/>
        <g>
		<path d="M67.26,43.35h-1.51v-2.43h1.51c0.88,0,1.39,0.49,1.39,1.19C68.65,42.84,68.13,43.35,67.26,43.35 M70.73,42.12
			c0-1.95-1.42-3.02-3.4-3.02h-3.62v9.2h2.03v-3.18h1.37l2.21,3.18h2.32l-2.52-3.59C70.1,44.23,70.73,43.35,70.73,42.12"/>
            <path d="M76.75,40.73c1.02,0,1.91,0.5,2.41,1.33l1.29-1.25c-0.52-0.98-1.79-1.84-3.58-1.84c-1.94,0-3.62,1.18-3.62,2.9
			c0,1.64,1.29,2.24,2.59,2.57l1.31,0.34c0.64,0.17,1.11,0.4,1.11,0.94c0,0.62-0.65,0.94-1.5,0.94c-1.1,0-2.04-0.52-2.56-1.35
			l-1.31,1.19c0.52,0.99,1.84,1.92,3.87,1.92c1.94,0,3.61-1.13,3.61-2.88c0-1.59-1.17-2.29-2.61-2.68l-1.22-0.33
			c-0.6-0.17-1.18-0.37-1.18-0.92C75.36,41.1,75.93,40.73,76.75,40.73"/>
	</g>
        <rect x="83.21" y="39.1" width="2.03" height="9.2"/>
        <polygon points="87.86,40.97 90.91,40.97 90.91,48.3 92.93,48.3 92.93,40.97 95.99,40.97 95.99,39.1 87.86,39.1 	"/>
        <polygon points="104,39.1 101.73,42.8 99.45,39.1 97.21,39.1 100.73,44.82 100.73,48.3 102.76,48.3 102.76,44.8 106.24,39.1 	"/>
        <polygon points="170.92,20.52 163.05,17.66 155.17,20.52 147.29,17.66 139.41,20.52 131.53,17.66 123.66,20.52 123.66,30.55
		131.53,33.41 139.41,30.55 147.29,33.41 155.17,30.55 163.05,33.41 170.92,30.55 	"/>
        <polygon class="st0" points="170.92,4.77 170.92,4.77 163.05,1.9 155.17,4.77 147.29,1.9 139.41,4.77 131.53,1.9 123.66,4.77
		123.66,14.79 131.53,17.65 139.41,14.79 147.29,17.65 155.17,14.79 163.05,17.65 170.92,14.79 170.92,4.77 	"/>
        <polygon points="139.41,4.77 131.53,7.63 123.65,4.77 131.53,1.9 	"/>
        <polygon points="155.17,4.77 147.29,7.63 139.41,4.77 147.29,1.9 	"/>
        <polygon points="170.92,4.77 163.04,7.63 155.17,4.77 163.04,1.9 	"/>
        <polygon class="st0" points="123.65,30.55 131.53,27.68 139.41,30.55 131.53,33.41 	"/>
        <polygon class="st0" points="155.17,30.55 163.05,27.68 170.92,30.55 163.05,33.41 	"/>
        <polygon class="st0" points="155.16,20.52 147.29,23.39 139.41,20.52 139.41,30.55 147.29,33.41 155.17,30.55 	"/>
        <polygon points="170.92,36.28 163.05,33.41 155.17,36.28 147.29,33.41 139.41,36.28 131.53,33.41 123.66,36.28 123.66,46.3
		131.53,49.17 139.41,46.3 147.29,49.17 155.17,46.3 163.05,49.17 170.92,46.3 	"/>
        <polygon class="st0" points="123.65,46.3 131.53,43.43 139.41,46.3 131.53,49.17 	"/>
        <polygon class="st0" points="155.17,46.3 163.05,43.43 170.92,46.3 163.05,49.17 	"/>
        <polygon class="st0" points="155.16,36.28 147.29,39.15 139.41,36.28 139.41,46.3 147.29,49.17 155.17,46.3 	"/>
        <polygon points="188.55,2.94 196.68,2.94 196.68,4.81 193.61,4.81 193.61,12.14 191.6,12.14 191.6,4.81 188.55,4.81 	"/>
        <g>
		<path d="M205.77,7.54c0-1.59-1.21-2.81-2.77-2.81c-1.58,0-2.79,1.21-2.79,2.81s1.21,2.81,2.79,2.81
			C204.57,10.35,205.77,9.13,205.77,7.54 M203,2.81c2.79,0,4.85,2.02,4.85,4.73c0,2.72-2.07,4.73-4.85,4.73
			c-2.8,0-4.87-2.02-4.87-4.73C198.13,4.82,200.2,2.81,203,2.81"/>
	</g>
        <polygon points="210.7,2.94 212.84,2.94 215.56,6.16 218.28,2.94 220.39,2.94 220.39,12.14 218.42,12.14 218.42,5.47 215.56,8.96
		212.68,5.5 212.68,12.14 210.7,12.14 	"/>
        <g>
		<path d="M228,4.73c-1.58,0-2.81,1.15-2.81,2.81c0,1.66,1.23,2.81,2.81,2.81c1.23,0,1.96-0.66,2.44-1.31l1.45,1.25
			c-0.5,0.83-1.82,1.99-3.9,1.99c-2.75,0-4.88-1.9-4.88-4.73c0-2.84,2.31-4.73,4.87-4.73c2.17,0,3.41,1.15,3.91,1.99l-1.45,1.25
			C229.96,5.39,229.23,4.73,228,4.73"/>
	</g>
        <path d="M239.84,2.94h2.24l-3.22,4l3.81,5.2h-2.39l-3.77-5.12L239.84,2.94z M234.48,2.94h2.03v9.2h-2.03V2.94z"/>
        <polygon points="246.98,9.08 251.28,2.94 253.31,2.94 253.31,12.14 251.31,12.14 251.31,5.96 247,12.14 244.98,12.14 244.98,2.94
		246.98,2.94 	"/>
        <g>
		<path d="M260.13,0c0,0.5,0.3,0.94,0.81,0.94c0.49,0,0.82-0.44,0.82-0.94h1.47c0,1.39-0.99,2.24-2.3,2.24
			c-1.3,0-2.31-0.85-2.31-2.24H260.13z M258.8,9.08l4.3-6.14h2.03v9.2h-2V5.96l-4.31,6.18h-2.02v-9.2h2V9.08z"/>
	</g>
        <polygon points="197.95,30.22 195.93,30.22 195.93,22.89 191.7,22.89 191.7,30.22 189.67,30.22 189.67,21.02 197.95,21.02 	"/>
        <g>
		<path d="M208.24,25.62c0-1.59-1.21-2.81-2.77-2.81c-1.58,0-2.79,1.21-2.79,2.81s1.21,2.81,2.79,2.81
			C207.03,28.43,208.24,27.21,208.24,25.62 M205.47,20.89c2.79,0,4.85,2.02,4.85,4.73c0,2.72-2.07,4.73-4.85,4.73
			c-2.8,0-4.87-2.02-4.87-4.73C200.6,22.9,202.67,20.89,205.47,20.89"/>
            <path d="M211.8,30.29v-1.86h0.52c0.81,0,1.22-0.38,1.22-1.46v-5.95h7.16v9.2h-2.02v-7.34h-3.21v4.23c0,1.91-0.83,3.18-2.93,3.18
			H211.8z"/>
	</g>
        <polygon points="226.21,27.16 230.5,21.02 232.53,21.02 232.53,30.22 230.53,30.22 230.53,24.04 226.22,30.22 224.2,30.22
		224.2,21.02 226.21,21.02 	"/>
        <polygon points="235.16,21.02 243.29,21.02 243.29,22.89 240.22,22.89 240.22,30.22 238.21,30.22 238.21,22.89 235.16,22.89 	"/>
        <polygon points="245.92,21.02 252.9,21.02 252.9,22.88 247.95,22.88 247.95,24.66 251.44,24.66 251.44,26.45 247.95,26.45
		247.95,28.36 252.95,28.36 252.95,30.22 245.92,30.22 	"/>
        <polygon points="259.81,24.15 262.14,21.02 264.45,21.02 261.06,25.55 264.6,30.22 262.12,30.22 259.64,27.01 257.17,30.22
		254.85,30.22 258.39,25.55 254.98,21.02 257.43,21.02 	"/>
        <polygon points="275.31,21.02 275.31,30.22 273.3,30.22 273.3,26.48 269.06,26.48 269.06,30.22 267.03,30.22 267.03,21.02
		269.06,21.02 269.06,24.63 273.3,24.63 273.3,21.02 	"/>
        <polygon points="280.81,27.16 285.11,21.02 287.14,21.02 287.14,30.22 285.14,30.22 285.14,24.04 280.83,30.22 278.81,30.22
		278.81,21.02 280.81,21.02 	"/>
        <g>
		<path d="M297.8,21.02v9.2h-2.02v-3.51h-2.56c-1.64,0-3.01-0.73-3.01-2.68v-3.01h2.02v2.76c0,0.81,0.52,1.07,1.3,1.07h2.26v-3.83
			H297.8z"/>
	</g>
        <polygon points="301.3,21.02 308.28,21.02 308.28,22.88 303.33,22.88 303.33,24.66 306.82,24.66 306.82,26.45 303.33,26.45
		303.33,28.36 308.33,28.36 308.33,30.22 301.3,30.22 	"/>
        <g>
		<path d="M315.13,22.81c-1.58,0-2.81,1.15-2.81,2.81c0,1.66,1.23,2.81,2.81,2.81c1.23,0,1.96-0.66,2.44-1.31l1.45,1.25
			c-0.5,0.83-1.82,1.99-3.9,1.99c-2.75,0-4.88-1.9-4.88-4.73c0-2.84,2.31-4.73,4.87-4.73c2.18,0,3.41,1.15,3.91,1.99l-1.45,1.25
			C317.09,23.47,316.36,22.81,315.13,22.81"/>
	</g>
        <path d="M326.97,21.02h2.24l-3.22,4l3.81,5.2h-2.39l-3.77-5.12L326.97,21.02z M321.61,21.02h2.03v9.2h-2.03V21.02z"/>
        <polygon points="334.12,27.16 338.42,21.02 340.45,21.02 340.45,30.22 338.44,30.22 338.44,24.04 334.13,30.22 332.12,30.22
		332.12,21.02 334.12,21.02 	"/>
        <g>
		<path d="M347.26,18.08c0,0.5,0.31,0.94,0.81,0.94c0.49,0,0.82-0.44,0.82-0.94h1.47c0,1.39-0.99,2.24-2.29,2.24
			s-2.31-0.85-2.31-2.24H347.26z M345.93,27.16l4.3-6.14h2.03v9.2h-2v-6.18l-4.31,6.18h-2.02v-9.2h2V27.16z"/>
            <path d="M189.7,46.44h0.94c0.53,0,1.11-0.05,1.45-0.5l-3.75-6.84h2.23l2.56,4.73l2.04-4.73h2.12l-3.16,7.17
			c-0.62,1.42-1.63,2.03-2.95,2.03h-1.49V46.44z"/>
	</g>
        <polygon points="207.99,39.1 207.99,48.3 205.97,48.3 205.97,44.56 201.74,44.56 201.74,48.3 199.71,48.3 199.71,39.1 201.74,39.1
		201.74,42.7 205.97,42.7 205.97,39.1 	"/>
        <polygon points="213.49,45.23 217.79,39.1 219.82,39.1 219.82,48.3 217.81,48.3 217.81,42.12 213.5,48.3 211.49,48.3 211.49,39.1
		213.49,39.1 	"/>
        <g>
		<path d="M227.15,46.61c0.76,0,1.41-0.35,1.41-1.13c0-0.78-0.65-1.11-1.41-1.11h-1.82v2.24H227.15z M226.87,40.77h-1.54v2.08h1.54
			c0.73,0,1.22-0.4,1.22-1.06C228.09,41.14,227.6,40.77,226.87,40.77 M223.3,39.1h3.87c1.87,0,3,0.99,3,2.43
			c0,1.11-0.72,1.71-1.41,1.93c0.93,0.19,1.86,0.85,1.86,2.16c0,1.68-1.35,2.68-3.29,2.68h-4.03V39.1z"/>
	</g>
        <polygon points="233.47,39.1 240.45,39.1 240.45,40.95 235.5,40.95 235.5,42.74 238.99,42.74 238.99,44.53 235.5,44.53
		235.5,46.44 240.5,46.44 240.5,48.3 233.47,48.3 	"/>
        <g>
		<path d="M248.35,42.12c0-0.7-0.53-1.19-1.35-1.19h-1.51v2.43H247C247.82,43.35,248.35,42.84,248.35,42.12 M243.46,39.1h3.62
			c1.91,0,3.36,1.07,3.36,3.02c0,1.94-1.47,3-3.36,3h-1.59v3.18h-2.03V39.1z"/>
            <path d="M257.26,40.89c-1.58,0-2.81,1.15-2.81,2.81c0,1.66,1.23,2.81,2.81,2.81c1.23,0,1.96-0.66,2.44-1.31l1.45,1.25
			c-0.5,0.83-1.82,1.99-3.9,1.99c-2.75,0-4.88-1.9-4.88-4.73c0-2.84,2.31-4.73,4.87-4.73c2.17,0,3.41,1.15,3.91,1.99l-1.45,1.25
			C259.23,41.55,258.5,40.89,257.26,40.89"/>
	</g>
        <polygon points="265.75,45.23 270.05,39.1 272.08,39.1 272.08,48.3 270.07,48.3 270.07,42.12 265.76,48.3 263.75,48.3 263.75,39.1
		265.75,39.1 	"/>
        <polygon points="274.7,39.1 282.83,39.1 282.83,40.97 279.77,40.97 279.77,48.3 277.75,48.3 277.75,40.97 274.7,40.97 	"/>
        <polygon points="285.47,39.1 292.44,39.1 292.44,40.95 287.5,40.95 287.5,42.74 290.98,42.74 290.98,44.53 287.5,44.53
		287.5,46.44 292.5,46.44 292.5,48.3 285.47,48.3 	"/>
        <polygon points="294.46,39.1 302.59,39.1 302.59,40.97 299.52,40.97 299.52,48.3 297.51,48.3 297.51,40.97 294.46,40.97 	"/>
</g>
</svg>
